<svg version="1.0" xmlns="http://www.w3.org/2000/svg" style="display:none;">
    <symbol id="arrow-left" viewBox="0 0 28 28" fill="none">
        <circle cx="14" cy="14" r="14" transform="rotate(-180 14 14)" fill="currentColor"/>
        <rect x="20" y="14.8" width="11" height="1.6" transform="rotate(-180 20 14.8)" fill="white"/>
        <path d="M13 19L9 14L13 9" stroke="white" stroke-width="1.6"/>
    </symbol>
    <symbol id="search" viewBox="0 0 20 20" fill="none">
        <path fill-rule="evenodd" clip-rule="evenodd"
              d="M11.5924 11.4138C10.1605 12.8457 7.83886 12.8457 6.40694 11.4138C4.97502 9.9819 4.97502 7.6603 6.40694 6.22837C7.83886 4.79645 10.1605 4.79645 11.5924 6.22837C13.0243 7.6603 13.0243 9.9819 11.5924 11.4138ZM12.0328 12.7968C10.0725 14.2962 7.25696 14.1495 5.46413 12.3566C3.51151 10.404 3.51151 7.23819 5.46413 5.28556C7.41675 3.33294 10.5826 3.33294 12.5352 5.28556C14.3279 7.07831 14.4747 9.89373 12.9755 11.8539L16.5423 15.4206L15.5994 16.3635L12.0328 12.7968Z"
              fill="currentColor"/>
    </symbol>
    <symbol id="dots" viewBox="0 0 3 16" fill="none" xmlns="http://www.w3.org/2000/svg">
        <circle cx="1.5" cy="2" r="1.5" fill="currentColor"/>
        <circle cx="1.5" cy="8" r="1.5" fill="currentColor"/>
        <circle cx="1.5" cy="14" r="1.5" fill="currentColor"/>
    </symbol>
    <symbol id="append" viewBox="0 0 32 32" fill="none">
        <path fill-rule="evenodd" clip-rule="evenodd"
              d="M7.18662 13.5L14.7628 5.92389L15.7056 6.8667L8.12943 14.4428L7.18662 13.5Z" fill="currentColor"/>
        <path fill-rule="evenodd" clip-rule="evenodd"
              d="M9.70067 16.0141L17.2768 8.43793L18.2196 9.38074L10.6435 16.9569L9.70067 16.0141Z"
              fill="currentColor"/>
        <path fill-rule="evenodd" clip-rule="evenodd"
              d="M15.0433 21.3567L22.6195 13.7806L23.5623 14.7234L15.9861 22.2995L15.0433 21.3567Z"
              fill="currentColor"/>
        <path fill-rule="evenodd" clip-rule="evenodd"
              d="M17.5574 23.8708L25.1335 16.2946L26.0763 17.2374L18.5002 24.8136L17.5574 23.8708Z"
              fill="currentColor"/>
        <path fill-rule="evenodd" clip-rule="evenodd"
              d="M17.5574 23.8709C14.9423 26.486 10.7118 26.4954 8.10831 23.8919C5.50482 21.2884 5.51424 17.0579 8.12936 14.4428L7.18655 13.5C4.0484 16.6381 4.0371 21.7148 7.16129 24.839C10.2855 27.9632 15.3621 27.9518 18.5003 24.8137L17.5574 23.8709Z"
              fill="currentColor"/>
        <path fill-rule="evenodd" clip-rule="evenodd"
              d="M22.6195 13.7806L23.5623 14.7234C26.003 12.2826 26.0118 8.3341 23.5819 5.90417C21.152 3.47424 17.2035 3.48303 14.7627 5.92381L15.7055 6.86662C17.6233 4.94887 20.7257 4.94196 22.6349 6.85119C24.5441 8.76042 24.5372 11.8628 22.6195 13.7806Z"
              fill="currentColor"/>
        <path fill-rule="evenodd" clip-rule="evenodd"
              d="M9.70092 16.0144C7.95751 17.7578 7.95123 20.5782 9.68689 22.3138C11.4226 24.0495 14.2429 24.0432 15.9863 22.2998L15.0435 21.357C13.8231 22.5774 11.8489 22.5818 10.6339 21.3668C9.41894 20.1518 9.42334 18.1776 10.6437 16.9572L9.70092 16.0144Z"
              fill="currentColor"/>
    </symbol>
    <symbol id="send" viewBox="0 0 28 28" fill="none">
        <circle cx="14" cy="14" r="14" fill="currentColor"/>
        <rect x="8" y="13.2" width="11" height="1.6" fill="white"/>
        <path d="M15 9L19 14L15 19" stroke="white" stroke-width="1.6"/>
    </symbol>
    <symbol id="message-two-marks" viewBox="0 0 11 5" fill="none">
        <line y1="-0.5" x2="3.765" y2="-0.5" transform="matrix(0.705933 0.708278 -0.705933 0.708278 0.700195 2.33301)"
              stroke="currentColor"/>
        <line y1="-0.5" x2="5.6475" y2="-0.5" transform="matrix(0.705933 -0.708278 0.705933 0.708278 3.35828 5)"
              stroke="currentColor"/>
        <line y1="-0.5" x2="5.6475" y2="-0.5" transform="matrix(0.705933 -0.708278 0.705933 0.708278 6.01587 5)"
              stroke="currentColor"/>
    </symbol>
    <symbol id="message-one-mark" viewBox="0 0 11 5" fill="none">
        <line y1="-0.5" x2="3.765" y2="-0.5" transform="matrix(0.705933 0.708278 -0.705933 0.708278 0.700195 2.33301)"
              stroke="currentColor"/>
        <line y1="-0.5" x2="5.6475" y2="-0.5" transform="matrix(0.705933 -0.708278 0.705933 0.708278 3.35828 5)"
              stroke="currentColor"/>
    </symbol>
    <symbol id="cross" viewBox="0 0 123.05 123.05" fill="none">
        <path d="M121.325,10.925l-8.5-8.399c-2.3-2.3-6.1-2.3-8.5,0l-42.4,42.399L18.726,1.726c-2.301-2.301-6.101-2.301-8.5,0l-8.5,8.5
		c-2.301,2.3-2.301,6.1,0,8.5l43.1,43.1l-42.3,42.5c-2.3,2.3-2.3,6.1,0,8.5l8.5,8.5c2.3,2.3,6.1,2.3,8.5,0l42.399-42.4l42.4,42.4
		c2.3,2.3,6.1,2.3,8.5,0l8.5-8.5c2.3-2.3,2.3-6.1,0-8.5l-42.5-42.4l42.4-42.399C123.625,17.125,123.625,13.325,121.325,10.925z"
              fill="currentColor"/>
    </symbol>
    <symbol id="append-photo" viewBox="0 0 22 22" fill="none">
        <path fill-rule="evenodd" clip-rule="evenodd"
              d="M4 1.5H18C19.3807 1.5 20.5 2.61929 20.5 4V14L14.5194 12.4052C13.5108 12.1362 12.4714 12 11.4275 12H10.5725C9.52864 12 8.48921 12.1362 7.48057 12.4052L1.5 14V4C1.5 2.61929 2.61929 1.5 4 1.5ZM0 4C0 1.79086 1.79086 0 4 0H18C20.2091 0 22 1.79086 22 4V18C22 20.2091 20.2091 22 18 22H4C1.79086 22 0 20.2091 0 18V4ZM8 6C8 7.10457 7.10457 8 6 8C4.89543 8 4 7.10457 4 6C4 4.89543 4.89543 4 6 4C7.10457 4 8 4.89543 8 6Z"
              fill="currentColor"/>
    </symbol>
    <symbol id="append-file" viewBox="0 0 22 22" fill="none">
        <path fill-rule="evenodd" clip-rule="evenodd"
              d="M4 1.5H18C19.3807 1.5 20.5 2.61929 20.5 4V12H16C13.7909 12 12 13.7909 12 16V20.5H4C2.61929 20.5 1.5 19.3807 1.5 18V4C1.5 2.61929 2.61929 1.5 4 1.5ZM12 22H4C1.79086 22 0 20.2091 0 18V4C0 1.79086 1.79086 0 4 0H18C20.2091 0 22 1.79086 22 4V12V18C22 20.2091 20.2091 22 18 22H12Z"
              fill="currentColor"/>
    </symbol>
    <symbol id="append-location" viewBox="0 0 22 22" fill="none">
        <path fill-rule="evenodd" clip-rule="evenodd"
              d="M20.5 11C20.5 16.2467 16.2467 20.5 11 20.5C5.75329 20.5 1.5 16.2467 1.5 11C1.5 5.75329 5.75329 1.5 11 1.5C16.2467 1.5 20.5 5.75329 20.5 11ZM22 11C22 17.0751 17.0751 22 11 22C4.92487 22 0 17.0751 0 11C0 4.92487 4.92487 0 11 0C17.0751 0 22 4.92487 22 11ZM11 14C12.6569 14 14 12.6569 14 11C14 9.34315 12.6569 8 11 8C9.34315 8 8 9.34315 8 11C8 12.6569 9.34315 14 11 14Z"
              fill="currentColor"/>
    </symbol>
    <symbol id="chat-plus" viewBox="0 0 22 22" fill="none">
        <circle cx="11" cy="11" r="10.25" stroke="currentColor" stroke-width="1.5"/>
        <line x1="10.9999" y1="5.5" x2="10.9999" y2="16.5" stroke="currentColor" stroke-width="1.5"/>
        <line x1="5.49988" y1="11" x2="16.4999" y2="11" stroke="currentColor" stroke-width="1.5"/>
    </symbol>
</svg>
